<svg xmlns="http://www.w3.org/2000/svg"  viewBox="0 0 64 64" width="64px" height="64px"><linearGradient id="6VYn41lPcoax8zLnTvldoa" x1="31.5" x2="31.5" y1="7" y2="57" gradientUnits="userSpaceOnUse"><stop offset="0" stop-color="#6dc7ff"/><stop offset="1" stop-color="#e6abff"/></linearGradient><path fill="url(#6VYn41lPcoax8zLnTvldoa)" d="M56,28v10v12H46V38H33V28h13H56z M32,47c-8.284,0-15-6.716-15-15s6.716-15,15-15V7	C18.193,7,7,18.193,7,32s11.193,25,25,25V47z"/><linearGradient id="6VYn41lPcoax8zLnTvldob" x1="31.5" x2="31.5" y1="6" y2="58" gradientUnits="userSpaceOnUse"><stop offset="0" stop-color="#1a6dff"/><stop offset="1" stop-color="#c822ff"/></linearGradient><path fill="url(#6VYn41lPcoax8zLnTvldob)" d="M57,51H45V39H32V27h25V51z M47,49h8V29H34v8h13V49z M33,58h-1C17.663,58,6,46.337,6,32	C6,17.664,17.663,6,32,6h1v12h-1c-7.72,0-14,6.28-14,14s6.28,14,14,14h1V58z M31,8.021C18.229,8.547,8,19.102,8,32	S18.229,55.453,31,55.98v-8.011C22.642,47.451,16,40.486,16,32s6.642-15.451,15-15.969V8.021z"/></svg>